# Blender 4.0.2
# www.blender.org
mtllib PlayerOuterShooter.mtl
o 立方体
v 1.280149 -0.352892 -0.698532
v 1.278321 0.359917 -0.698532
v 1.272195 -0.352892 -3.092117
v 1.255854 0.359917 -3.092117
v 1.973757 -0.248125 -0.698532
v 2.008055 0.278431 -0.698532
v 1.821553 -0.248125 -3.092117
v 1.855851 0.278431 -3.092117
v 1.406008 -0.507247 -2.033758
v 1.558213 0.510947 -2.033758
v 2.085932 -0.357595 -2.033758
v 2.134924 0.394551 -2.033758
v 1.214303 -0.014778 0.017191
v 1.037090 -0.014778 -3.886503
v 1.840919 0.001850 -3.332289
v 1.731611 0.001850 -0.185797
v 2.232909 0.001850 -2.033758
v 1.321638 -0.014778 -2.033758
v 1.584615 -0.352892 -3.092117
v 1.584615 0.359917 -3.092117
v 1.736819 -0.352892 -0.698532
v 1.736819 0.359917 -0.698532
v 1.747483 0.510947 -2.033758
v 1.747483 -0.507247 -2.033758
v 1.487944 0.001850 0.017191
v 1.310731 0.001850 -3.683465
v -1.280149 -0.352892 -0.698532
v -1.278321 0.359917 -0.698532
v -1.272195 -0.352892 -3.092117
v -1.255854 0.359917 -3.092117
v -1.973757 -0.248125 -0.698532
v -2.008055 0.278431 -0.698532
v -1.821553 -0.248125 -3.092117
v -1.855851 0.278431 -3.092117
v -1.406008 -0.507247 -2.033758
v -1.558213 0.510947 -2.033758
v -2.085932 -0.357595 -2.033758
v -2.134924 0.394551 -2.033758
v -1.214303 -0.014778 0.017191
v -1.037090 -0.014778 -3.886503
v -1.840919 0.001850 -3.332289
v -1.731611 0.001850 -0.185797
v -2.232909 0.001850 -2.033758
v -1.321638 -0.014778 -2.033758
v -1.584615 -0.352892 -3.092117
v -1.584615 0.359917 -3.092117
v -1.736819 -0.352892 -0.698532
v -1.736819 0.359917 -0.698532
v -1.747483 0.510947 -2.033758
v -1.747483 -0.507247 -2.033758
v -1.487944 0.001850 0.017191
v -1.310731 0.001850 -3.683465
v 0.322632 1.288108 -0.698532
v -0.389935 1.269486 -0.698532
v 0.322820 1.280156 -3.092117
v -0.389406 1.247025 -3.092117
v 0.201553 1.979055 -0.698532
v -0.325666 2.000938 -0.698532
v 0.205139 1.826893 -3.092117
v -0.322080 1.848776 -3.092117
v 0.473979 1.417569 -2.033758
v -0.547518 1.545742 -2.033758
v 0.308349 2.093778 -2.033758
v -0.444742 2.125035 -2.033758
v -0.013836 1.214314 0.017191
v -0.009661 1.037150 -3.886503
v -0.045223 1.840365 -3.332289
v -0.042648 1.731087 -0.185797
v -0.054459 2.232245 -2.033758
v -0.016365 1.321620 -2.033758
v 0.315459 1.592489 -3.092117
v -0.397152 1.575695 -3.092117
v 0.311873 1.744652 -0.698532
v -0.400738 1.727857 -0.698532
v -0.551977 1.734960 -2.033758
v 0.465934 1.758949 -2.033758
v -0.036907 1.487487 0.017191
v -0.032732 1.310323 -3.683465
v 0.382955 -1.271479 -0.698532
v -0.329698 -1.286446 -0.698532
v 0.382768 -1.263527 -3.092117
v -0.330228 -1.263985 -3.092117
v 0.294560 -1.967363 -0.698532
v -0.231043 -2.014058 -0.698532
v 0.290974 -1.815201 -3.092117
v -0.234629 -1.861896 -3.092117
v 0.540233 -1.393667 -2.033758
v -0.474092 -1.569819 -2.033758
v 0.406642 -2.076927 -2.033758
v -0.344141 -2.143627 -2.033758
v 0.043384 -1.213617 0.017191
v 0.039209 -1.036454 -3.886503
v 0.041524 -1.840452 -3.332289
v 0.038949 -1.731174 -0.185797
v 0.050760 -2.232333 -2.033758
v 0.045913 -1.320923 -2.033758
v 0.390129 -1.575861 -3.092117
v -0.322482 -1.592655 -3.092117
v 0.393715 -1.728023 -0.698532
v -0.318896 -1.744817 -0.698532
v -0.469633 -1.759037 -2.033758
v 0.548278 -1.735047 -2.033758
v 0.033208 -1.487574 0.017191
v 0.029032 -1.310410 -3.683465
vn -0.9577 0.2473 0.1471
vn 0.3995 0.6904 -0.6031
vn 0.8703 -0.4322 0.2361
vn -0.0539 0.8866 0.4593
vn 0.4020 -0.9092 0.1083
vn -0.0000 0.9937 0.1124
vn -0.0000 0.9900 -0.1413
vn 0.3969 -0.8976 -0.1920
vn 0.9389 0.1954 -0.2834
vn -0.9961 0.0706 -0.0521
vn -0.9830 -0.1684 -0.0732
vn 0.8935 -0.3654 -0.2610
vn -0.0000 -0.8960 0.4441
vn 0.9202 -0.3763 0.1082
vn 0.2977 -0.6733 -0.6768
vn -0.9807 -0.1680 0.0995
vn -0.0000 -0.8575 -0.5144
vn 0.3411 -0.7714 0.5372
vn -0.0000 -0.9895 -0.1443
vn 0.2831 0.9424 -0.1781
vn 0.2860 0.9519 0.1100
vn -0.0000 -0.9934 0.1148
vn 0.4325 0.7372 0.5192
vn 0.3009 0.8279 -0.4734
vn 0.8939 0.4022 0.1980
vn -0.3995 0.6904 -0.6031
vn -0.9641 0.2406 0.1125
vn -0.0000 0.8943 0.4474
vn -0.4020 -0.9092 0.1083
vn -0.3969 -0.8976 -0.1920
vn -0.9389 0.1954 -0.2834
vn 0.9961 0.0706 -0.0521
vn 0.9951 -0.0836 -0.0521
vn -0.9031 -0.3319 -0.2726
vn -0.9202 -0.3763 0.1082
vn -0.3977 -0.6938 -0.6004
vn 0.9807 -0.1680 0.0995
vn -0.3868 -0.8017 -0.4557
vn -0.3411 -0.7714 0.5372
vn -0.2831 0.9424 -0.1781
vn -0.2860 0.9519 0.1100
vn -0.2388 0.7950 0.5576
vn -0.3009 0.8279 -0.4734
vn -0.2247 -0.9633 0.1471
vn -0.6997 0.3831 -0.6031
vn 0.4116 0.8803 0.2361
vn -0.8851 -0.0748 0.4593
vn 0.8995 0.4233 0.1083
vn -0.9934 -0.0234 0.1124
vn -0.9897 -0.0233 -0.1413
vn 0.8880 0.4179 -0.1920
vn -0.2175 0.9340 -0.2834
vn -0.0471 -0.9975 -0.0521
vn 0.1915 -0.9788 -0.0732
vn 0.3442 0.9019 -0.2610
vn 0.8957 0.0211 0.4441
vn 0.3545 0.9288 0.1082
vn 0.6661 0.3135 -0.6768
vn 0.1911 -0.9765 0.0995
vn 0.8573 0.0202 -0.5144
vn 0.7632 0.3592 0.5372
vn 0.9893 0.0233 -0.1443
vn -0.9488 0.2608 -0.1781
vn -0.9584 0.2635 0.1100
vn 0.9931 0.0234 0.1148
vn -0.7471 0.4150 0.5192
vn -0.8347 0.2813 -0.4734
vn -0.4232 0.8841 0.1980
vn -0.6808 -0.4156 -0.6031
vn -0.2178 -0.9695 0.1125
vn -0.8941 -0.0211 0.4474
vn 0.9184 -0.3805 0.1083
vn 0.9067 -0.3756 -0.1920
vn -0.1732 -0.9432 -0.2834
vn -0.0941 0.9942 -0.0521
vn 0.0601 0.9968 -0.0521
vn 0.3531 -0.8950 -0.2726
vn 0.3978 -0.9111 0.1082
vn 0.7030 -0.3812 -0.6004
vn 0.1449 0.9844 0.0995
vn 0.8106 -0.3678 -0.4557
vn 0.7792 -0.3228 0.5372
vn -0.9355 -0.3052 -0.1781
vn -0.9449 -0.3083 0.1100
vn -0.7892 -0.2575 0.5576
vn -0.8206 -0.3203 -0.4734
vn -0.8939 0.4022 0.1980
vn 0.1915 0.6376 -0.7462
vn 0.9641 0.2406 0.1125
vn 0.9337 0.2330 -0.2718
vn -0.9025 0.4061 -0.1432
vn -0.9951 -0.0836 -0.0521
vn 0.9031 -0.3319 -0.2726
vn 0.0547 -0.9009 0.4306
vn 0.8967 0.3697 0.2433
vn 0.3977 -0.6938 -0.6004
vn -0.9384 -0.3139 0.1441
vn 0.3868 -0.8017 -0.4557
vn 0.4303 -0.7403 0.5165
vn 0.2388 0.7950 0.5576
vn -0.0000 0.8554 -0.5180
vn 0.9577 0.2473 0.1471
vn -0.1915 0.6376 -0.7462
vn -0.8703 -0.4322 0.2361
vn 0.0539 0.8866 0.4593
vn -0.9337 0.2330 -0.2718
vn 0.9025 0.4061 -0.1432
vn 0.9830 -0.1684 -0.0732
vn -0.8935 -0.3654 -0.2610
vn -0.0547 -0.9009 0.4306
vn -0.8967 0.3697 0.2433
vn -0.2977 -0.6733 -0.6768
vn 0.9384 -0.3139 0.1441
vn -0.4303 -0.7403 0.5165
vn -0.4325 0.7372 0.5192
vn -0.3811 -0.9031 0.1980
vn -0.6419 0.1765 -0.7462
vn -0.2632 0.9582 0.1125
vn -0.2549 0.9280 -0.2718
vn -0.3848 -0.9118 -0.1432
vn 0.1070 -0.9929 -0.0521
vn 0.3105 0.9106 -0.2726
vn 0.8993 0.0760 0.4306
vn -0.3907 0.8878 0.2433
vn 0.6843 0.4139 -0.6004
vn 0.3359 -0.9308 0.1441
vn 0.7923 0.4056 -0.4557
vn 0.7299 0.4476 0.5165
vn -0.8004 0.2200 0.5576
vn -0.8552 -0.0202 -0.5180
vn -0.2698 0.9516 0.1471
vn -0.6329 -0.2065 -0.7462
vn 0.4526 -0.8599 0.2361
vn -0.8876 0.0330 0.4593
vn -0.2109 -0.9390 -0.2718
vn -0.4273 0.8927 -0.1432
vn 0.1452 0.9867 -0.0732
vn 0.3863 -0.8847 -0.2610
vn 0.9019 -0.0335 0.4306
vn -0.3485 -0.9052 0.2433
vn 0.6801 -0.2818 -0.6768
vn 0.2917 0.9456 0.1441
vn 0.7502 -0.4127 0.5165
vn -0.7268 -0.4498 0.5192
vt 0.234916 0.740846
vt 0.250746 0.756676
vt 0.234916 0.756676
vt 0.250746 0.772506
vt 0.234916 0.788337
vt 0.234916 0.772506
vt 0.234916 0.804167
vt 0.250746 0.819996
vt 0.234916 0.819996
vt 0.234916 0.835827
vt 0.250746 0.851657
vt 0.234916 0.851657
vt 0.203256 0.804167
vt 0.219086 0.819996
vt 0.203256 0.819996
vt 0.282407 0.804167
vt 0.266576 0.819996
vt 0.266576 0.804167
vt 0.266576 0.788337
vt 0.219086 0.788337
vt 0.203256 0.788337
vt 0.250746 0.788337
vt 0.250746 0.725016
vt 0.234916 0.725016
vt 0.219086 0.725016
vt 0.219086 0.740846
vt 0.219086 0.804167
vt 0.219086 0.851657
vt 0.219086 0.835827
vt 0.219086 0.772506
vt 0.219086 0.756676
vt 0.187426 0.804167
vt 0.187426 0.788337
vt 0.250746 0.804167
vt 0.187426 0.819996
vt 0.250746 0.835827
vt 0.250746 0.740846
vt 0.282407 0.788337
vt 0.282407 0.819996
s 0
usemtl マテリアル.001
f 18/1/1 4/2/1 14/3/1
f 20/4/2 15/5/2 26/6/2
f 17/7/3 6/8/3 16/9/3
f 25/10/4 2/11/4 13/12/4
f 24/13/5 5/14/5 21/15/5
f 10/16/6 22/17/6 23/18/6
f 20/19/7 10/16/7 23/18/7
f 7/20/8 24/13/8 19/21/8
f 8/22/9 17/7/9 15/5/9
f 2/23/10 18/1/10 13/24/10
f 1/25/11 18/1/11 9/26/11
f 7/20/12 17/7/12 11/27/12
f 25/10/13 1/28/13 21/29/13
f 17/7/14 5/14/14 11/27/14
f 19/30/15 15/5/15 7/20/15
f 18/1/16 3/31/16 9/26/16
f 3/31/17 26/6/17 19/30/17
f 16/9/18 21/29/18 5/14/18
f 19/21/19 9/32/19 3/33/19
f 8/22/20 23/18/20 12/34/20
f 23/18/21 6/8/21 12/34/21
f 9/32/22 21/15/22 1/35/22
f 16/9/23 22/36/23 25/10/23
f 4/2/24 26/6/24 14/3/24
f 44/1/25 30/2/25 36/37/25
f 41/5/26 46/4/26 52/6/26
f 43/7/27 32/8/27 38/34/27
f 51/10/28 28/11/28 48/36/28
f 50/13/29 31/14/29 37/27/29
f 48/17/6 36/16/6 49/18/6
f 46/19/7 36/16/7 30/38/7
f 50/13/30 33/20/30 45/21/30
f 43/7/31 34/22/31 41/5/31
f 44/1/32 28/23/32 39/24/32
f 27/25/33 44/1/33 39/24/33
f 33/20/34 43/7/34 41/5/34
f 27/28/13 51/10/13 47/29/13
f 31/14/35 43/7/35 37/27/35
f 45/30/36 41/5/36 52/6/36
f 29/31/37 44/1/37 35/26/37
f 29/31/38 52/6/38 40/3/38
f 47/29/39 42/9/39 31/14/39
f 35/32/19 45/21/19 29/33/19
f 34/22/40 49/18/40 46/19/40
f 32/8/41 49/18/41 38/34/41
f 35/32/22 47/15/22 50/13/22
f 42/9/42 48/36/42 32/8/42
f 52/6/43 30/2/43 40/3/43
f 18/1/87 10/37/87 4/2/87
f 20/4/88 8/22/88 15/5/88
f 17/7/89 12/34/89 6/8/89
f 25/10/28 22/36/28 2/11/28
f 24/13/5 11/27/5 5/14/5
f 10/16/6 2/39/6 22/17/6
f 20/19/7 4/38/7 10/16/7
f 7/20/8 11/27/8 24/13/8
f 8/22/90 12/34/90 17/7/90
f 2/23/91 10/37/91 18/1/91
f 1/25/92 13/24/92 18/1/92
f 7/20/93 15/5/93 17/7/93
f 25/10/94 13/12/94 1/28/94
f 17/7/95 16/9/95 5/14/95
f 19/30/96 26/6/96 15/5/96
f 18/1/97 14/3/97 3/31/97
f 3/31/98 14/3/98 26/6/98
f 16/9/99 25/10/99 21/29/99
f 19/21/19 24/13/19 9/32/19
f 8/22/20 20/19/20 23/18/20
f 23/18/21 22/17/21 6/8/21
f 9/32/22 24/13/22 21/15/22
f 16/9/100 6/8/100 22/36/100
f 4/2/101 20/4/101 26/6/101
f 44/1/102 40/3/102 30/2/102
f 41/5/103 34/22/103 46/4/103
f 43/7/104 42/9/104 32/8/104
f 51/10/105 39/12/105 28/11/105
f 50/13/29 47/15/29 31/14/29
f 48/17/6 28/39/6 36/16/6
f 46/19/7 49/18/7 36/16/7
f 50/13/30 37/27/30 33/20/30
f 43/7/106 38/34/106 34/22/106
f 44/1/107 36/37/107 28/23/107
f 27/25/108 35/26/108 44/1/108
f 33/20/109 37/27/109 43/7/109
f 27/28/110 39/12/110 51/10/110
f 31/14/111 42/9/111 43/7/111
f 45/30/112 33/20/112 41/5/112
f 29/31/113 40/3/113 44/1/113
f 29/31/17 45/30/17 52/6/17
f 47/29/114 51/10/114 42/9/114
f 35/32/19 50/13/19 45/21/19
f 34/22/40 38/34/40 49/18/40
f 32/8/41 48/17/41 49/18/41
f 35/32/22 27/35/22 47/15/22
f 42/9/115 51/10/115 48/36/115
f 52/6/101 46/4/101 30/2/101
usemtl マテリアル.002
f 70/1/44 56/2/44 66/3/44
f 72/4/45 67/5/45 78/6/45
f 69/7/46 58/8/46 68/9/46
f 77/10/47 54/11/47 65/12/47
f 76/13/48 57/14/48 73/15/48
f 62/16/49 74/17/49 75/18/49
f 72/19/50 62/16/50 75/18/50
f 59/20/51 76/13/51 71/21/51
f 60/22/52 69/7/52 67/5/52
f 54/23/53 70/1/53 65/24/53
f 53/25/54 70/1/54 61/26/54
f 59/20/55 69/7/55 63/27/55
f 77/10/56 53/28/56 73/29/56
f 69/7/57 57/14/57 63/27/57
f 71/30/58 67/5/58 59/20/58
f 70/1/59 55/31/59 61/26/59
f 55/31/60 78/6/60 71/30/60
f 68/9/61 73/29/61 57/14/61
f 71/21/62 61/32/62 55/33/62
f 60/22/63 75/18/63 64/34/63
f 75/18/64 58/8/64 64/34/64
f 61/32/65 73/15/65 53/35/65
f 68/9/66 74/36/66 77/10/66
f 56/2/67 78/6/67 66/3/67
f 96/1/68 82/2/68 88/37/68
f 93/5/69 98/4/69 104/6/69
f 95/7/70 84/8/70 90/34/70
f 103/10/71 80/11/71 100/36/71
f 102/13/72 83/14/72 89/27/72
f 100/17/49 88/16/49 101/18/49
f 98/19/50 88/16/50 82/38/50
f 102/13/73 85/20/73 97/21/73
f 95/7/74 86/22/74 93/5/74
f 96/1/75 80/23/75 91/24/75
f 79/25/76 96/1/76 91/24/76
f 85/20/77 95/7/77 93/5/77
f 79/28/56 103/10/56 99/29/56
f 83/14/78 95/7/78 89/27/78
f 97/30/79 93/5/79 104/6/79
f 81/31/80 96/1/80 87/26/80
f 81/31/81 104/6/81 92/3/81
f 99/29/82 94/9/82 83/14/82
f 87/32/62 97/21/62 81/33/62
f 86/22/83 101/18/83 98/19/83
f 84/8/84 101/18/84 90/34/84
f 87/32/65 99/15/65 102/13/65
f 94/9/85 100/36/85 84/8/85
f 104/6/86 82/2/86 92/3/86
f 70/1/116 62/37/116 56/2/116
f 72/4/117 60/22/117 67/5/117
f 69/7/118 64/34/118 58/8/118
f 77/10/71 74/36/71 54/11/71
f 76/13/48 63/27/48 57/14/48
f 62/16/49 54/39/49 74/17/49
f 72/19/50 56/38/50 62/16/50
f 59/20/51 63/27/51 76/13/51
f 60/22/119 64/34/119 69/7/119
f 54/23/120 62/37/120 70/1/120
f 53/25/121 65/24/121 70/1/121
f 59/20/122 67/5/122 69/7/122
f 77/10/123 65/12/123 53/28/123
f 69/7/124 68/9/124 57/14/124
f 71/30/125 78/6/125 67/5/125
f 70/1/126 66/3/126 55/31/126
f 55/31/127 66/3/127 78/6/127
f 68/9/128 77/10/128 73/29/128
f 71/21/62 76/13/62 61/32/62
f 60/22/63 72/19/63 75/18/63
f 75/18/64 74/17/64 58/8/64
f 61/32/65 76/13/65 73/15/65
f 68/9/129 58/8/129 74/36/129
f 56/2/130 72/4/130 78/6/130
f 96/1/131 92/3/131 82/2/131
f 93/5/132 86/22/132 98/4/132
f 95/7/133 94/9/133 84/8/133
f 103/10/134 91/12/134 80/11/134
f 102/13/72 99/15/72 83/14/72
f 100/17/49 80/39/49 88/16/49
f 98/19/50 101/18/50 88/16/50
f 102/13/73 89/27/73 85/20/73
f 95/7/135 90/34/135 86/22/135
f 96/1/136 88/37/136 80/23/136
f 79/25/137 87/26/137 96/1/137
f 85/20/138 89/27/138 95/7/138
f 79/28/139 91/12/139 103/10/139
f 83/14/140 94/9/140 95/7/140
f 97/30/141 85/20/141 93/5/141
f 81/31/142 92/3/142 96/1/142
f 81/31/60 97/30/60 104/6/60
f 99/29/143 103/10/143 94/9/143
f 87/32/62 102/13/62 97/21/62
f 86/22/83 90/34/83 101/18/83
f 84/8/84 100/17/84 101/18/84
f 87/32/65 79/35/65 99/15/65
f 94/9/144 103/10/144 100/36/144
f 104/6/130 98/4/130 82/2/130
