# Blender 3.5.0
# www.blender.org
mtllib backBuild.mtl
o Cube
v 3.489469 0.577863 -3.489469
v 3.489469 -0.316383 -3.489469
v 3.489469 0.577863 3.489469
v 3.489469 -0.316383 3.489469
v -3.489469 0.577863 -3.489469
v -3.489469 -0.316383 -3.489469
v -3.489469 0.577863 3.489469
v -3.489469 -0.316383 3.489469
v -5.073203 -0.316383 0.000000
v -5.073203 0.577863 0.000000
v -5.073203 0.577863 -1.744734
v -5.073203 -0.316383 -1.744734
v -5.073203 -0.316383 1.744734
v -5.073203 0.577863 1.744734
v 0.000000 0.577863 5.172510
v 0.000000 -0.316383 5.172510
v 1.745947 -0.316383 5.172510
v 1.745947 0.577863 5.172510
v -1.745947 0.577863 5.172510
v -1.745947 -0.316383 5.172510
v 5.073203 0.577863 0.000000
v 5.073203 -0.316383 0.000000
v 5.073203 0.577863 1.744734
v 5.073203 -0.316383 1.744734
v 5.073203 -0.316383 -1.744734
v 5.073203 0.577863 -1.744734
v 0.000000 -0.316383 -5.172510
v 0.000000 0.577863 -5.172510
v -1.745947 -0.316383 -5.172510
v -1.745947 0.577863 -5.172510
v 1.745947 0.577863 -5.172510
v 1.745947 -0.316383 -5.172510
vn 0.6945 -0.0000 -0.7195
vn 0.7404 -0.0000 0.6721
vn 1.0000 -0.0000 -0.0000
vn -0.7404 -0.0000 -0.6721
vn -0.6945 -0.0000 0.7195
vn 0.7404 -0.0000 -0.6721
vn -0.0000 -0.0000 -1.0000
vn -0.6945 -0.0000 -0.7195
vn -1.0000 -0.0000 -0.0000
vn -0.7404 -0.0000 0.6721
vn -0.0000 -0.0000 1.0000
vn 0.6945 -0.0000 0.7195
vt 0.002316 0.995183
vt 0.998556 0.994545
vt 0.998556 -0.008000
vt 0.002316 -0.008637
vt 0.999234 0.994571
vt 0.998744 0.995808
vt 0.998565 -0.008958
vt 0.999234 -0.008026
vt 0.002495 0.996702
vt 0.999667 0.996944
vt 0.999667 -0.010399
vt 0.002495 -0.010157
vt 0.001085 0.993756
vt 0.998279 0.995326
vt 0.998279 -0.008595
vt 0.001086 -0.006432
vt 0.997299 -0.007867
vt 0.002734 -0.008640
vt 0.002734 0.995185
vt 0.997299 0.994413
vt 0.998262 0.996702
vt 0.003677 0.994413
vt 0.998262 -0.010157
vt 0.003677 -0.007867
vt 0.999011 -0.008640
vt 0.002707 -0.008595
vt 0.999011 0.995185
vt 0.002707 0.995326
vt 0.997604 0.994964
vt 0.998084 0.994033
vt 0.998085 -0.007487
vt 0.997604 -0.008419
vt 0.000139 -0.008419
vt 0.003042 -0.009301
vt 0.000139 0.994964
vt 0.002336 0.993733
vt 0.999618 0.993756
vt 0.003394 0.994033
vt 0.999618 -0.006432
vt 0.003394 -0.007487
vt 0.001293 0.994109
vt 0.998396 0.994051
vt 0.998396 -0.007505
vt 0.001293 -0.007564
vt 0.000735 0.994571
vt 0.002909 0.994051
vt 0.000735 -0.008026
vt 0.002909 -0.007505
vt 0.999040 -0.007564
vt 0.001772 -0.008000
vt 0.999039 0.994109
vt 0.001772 0.994545
vt 0.997356 -0.009189
vt 0.001444 -0.008529
vt 0.001444 0.995074
vt 0.997356 0.995734
vt 0.999861 -0.008529
vt 0.001982 -0.010399
vt 0.999861 0.995074
vt 0.001982 0.996944
vt 0.998739 0.995183
vt 0.002003 0.995734
vt 0.998740 -0.008637
vt 0.002003 -0.009189
s 0
usemtl Material
f 8/16/1 19/37/1 20/39/1
f 6/12/2 11/21/2 12/23/2
f 9/18/3 14/27/3 13/25/3
f 4/8/4 23/45/4 24/47/4
f 2/4/5 31/61/5 32/63/5
f 12/24/3 10/20/3 9/17/3
f 13/26/6 7/14/6 8/15/6
f 16/32/7 18/35/7 17/33/7
f 17/34/8 3/6/8 4/7/8
f 20/40/7 15/30/7 16/31/7
f 22/44/9 26/51/9 25/49/9
f 24/48/9 21/42/9 22/43/9
f 25/50/10 1/2/10 2/3/10
f 27/54/11 30/59/11 29/57/11
f 29/58/12 5/10/12 6/11/12
f 32/64/11 28/56/11 27/53/11
f 8/16/1 7/13/1 19/37/1
f 6/12/2 5/9/2 11/21/2
f 9/18/3 10/19/3 14/27/3
f 4/8/4 3/5/4 23/45/4
f 2/4/5 1/1/5 31/61/5
f 12/24/3 11/22/3 10/20/3
f 13/26/6 14/28/6 7/14/6
f 16/32/7 15/29/7 18/35/7
f 17/34/8 18/36/8 3/6/8
f 20/40/7 19/38/7 15/30/7
f 22/44/9 21/41/9 26/51/9
f 24/48/9 23/46/9 21/42/9
f 25/50/10 26/52/10 1/2/10
f 27/54/11 28/55/11 30/59/11
f 29/58/12 30/60/12 5/10/12
f 32/64/11 31/62/11 28/56/11
