# Blender 3.6.0
# www.blender.org
mtllib 3DReticle.mtl
o Cube
v 0.265271 1.000000 -1.000000
v 0.265271 -1.000000 -1.000000
v 0.265271 1.000000 -0.645301
v 0.265271 -1.000000 -0.645301
v -0.247025 1.000000 -1.000000
v -0.247025 -1.000000 -1.000000
v -0.247025 1.000000 -0.645301
v -0.247025 -1.000000 -0.645301
v 0.265271 0.000000 -1.000000
v -0.247025 0.000000 -0.645301
v 0.265271 0.000000 -0.645301
v -0.247025 0.000000 -1.000000
v -0.247025 0.583037 -0.645301
v 0.265271 0.500000 -1.000000
v 0.265271 0.583037 -0.645301
v -0.247025 0.500000 -1.000000
v 0.265271 -0.500000 -1.000000
v 0.265271 -0.602385 -0.645301
v -0.247025 -0.500000 -1.000000
v -0.247025 -0.602385 -0.645301
v 0.265271 -1.000000 0.002728
v -0.247025 -1.000000 0.002728
v 0.265271 -0.602385 0.002728
v -0.247025 -0.602385 0.002728
v -0.265271 1.000000 -1.000000
v -0.265271 -1.000000 -1.000000
v -0.265271 1.000000 -0.645301
v -0.265271 -1.000000 -0.645301
v 0.247025 1.000000 -1.000000
v 0.247025 -1.000000 -1.000000
v 0.247025 1.000000 -0.645301
v 0.247025 -1.000000 -0.645301
v -0.265271 0.000000 -1.000000
v 0.247025 0.000000 -0.645301
v -0.265271 0.000000 -0.645301
v 0.247025 0.000000 -1.000000
v 0.247025 0.583037 -0.645301
v -0.265271 0.500000 -1.000000
v -0.265271 0.583037 -0.645301
v 0.247025 0.500000 -1.000000
v -0.265271 -0.500000 -1.000000
v -0.265271 -0.602385 -0.645301
v 0.247025 -0.500000 -1.000000
v 0.247025 -0.602385 -0.645301
v -0.265271 -1.000000 0.002728
v 0.247025 -1.000000 0.002728
v -0.265271 -0.602385 0.002728
v 0.247025 -0.602385 0.002728
v 0.265271 1.000000 1.000000
v 0.265271 -1.000000 1.000000
v 0.265271 1.000000 0.645301
v 0.265271 -1.000000 0.645301
v -0.247025 1.000000 1.000000
v -0.247025 -1.000000 1.000000
v -0.247025 1.000000 0.645301
v -0.247025 -1.000000 0.645301
v 0.265271 0.000000 1.000000
v -0.247025 0.000000 0.645301
v 0.265271 0.000000 0.645301
v -0.247025 0.000000 1.000000
v -0.247025 0.583037 0.645301
v 0.265271 0.500000 1.000000
v 0.265271 0.583037 0.645301
v -0.247025 0.500000 1.000000
v 0.265271 -0.500000 1.000000
v 0.265271 -0.602385 0.645301
v -0.247025 -0.500000 1.000000
v -0.247025 -0.602385 0.645301
v 0.265271 -1.000000 -0.002728
v -0.247025 -1.000000 -0.002728
v 0.265271 -0.602385 -0.002728
v -0.247025 -0.602385 -0.002728
v -0.265271 1.000000 1.000000
v -0.265271 -1.000000 1.000000
v -0.265271 1.000000 0.645301
v -0.265271 -1.000000 0.645301
v 0.247025 1.000000 1.000000
v 0.247025 -1.000000 1.000000
v 0.247025 1.000000 0.645301
v 0.247025 -1.000000 0.645301
v -0.265271 0.000000 1.000000
v 0.247025 0.000000 0.645301
v -0.265271 0.000000 0.645301
v 0.247025 0.000000 1.000000
v 0.247025 0.583037 0.645301
v -0.265271 0.500000 1.000000
v -0.265271 0.583037 0.645301
v 0.247025 0.500000 1.000000
v -0.265271 -0.500000 1.000000
v -0.265271 -0.602385 0.645301
v 0.247025 -0.500000 1.000000
v 0.247025 -0.602385 0.645301
v -0.265271 -1.000000 -0.002728
v 0.247025 -1.000000 -0.002728
v -0.265271 -0.602385 -0.002728
v 0.247025 -0.602385 -0.002728
v 0.265271 -1.000000 -1.000000
v 0.265271 1.000000 -1.000000
v 0.265271 -1.000000 -0.645301
v 0.265271 1.000000 -0.645301
v -0.247025 -1.000000 -1.000000
v -0.247025 1.000000 -1.000000
v -0.247025 -1.000000 -0.645301
v -0.247025 1.000000 -0.645301
v -0.247025 -0.583037 -0.645301
v 0.265271 -0.500000 -1.000000
v 0.265271 -0.583037 -0.645301
v -0.247025 -0.500000 -1.000000
v 0.265271 0.500000 -1.000000
v 0.265271 0.602385 -0.645301
v -0.247025 0.500000 -1.000000
v -0.247025 0.602385 -0.645301
v 0.265271 1.000000 0.002728
v -0.247025 1.000000 0.002728
v 0.265271 0.602385 0.002728
v -0.247025 0.602385 0.002728
v -0.265271 -1.000000 -1.000000
v -0.265271 1.000000 -1.000000
v -0.265271 -1.000000 -0.645301
v -0.265271 1.000000 -0.645301
v 0.247025 -1.000000 -1.000000
v 0.247025 1.000000 -1.000000
v 0.247025 -1.000000 -0.645301
v 0.247025 1.000000 -0.645301
v 0.247025 -0.583037 -0.645301
v -0.265271 -0.500000 -1.000000
v -0.265271 -0.583037 -0.645301
v 0.247025 -0.500000 -1.000000
v -0.265271 0.500000 -1.000000
v -0.265271 0.602385 -0.645301
v 0.247025 0.500000 -1.000000
v 0.247025 0.602385 -0.645301
v -0.265271 1.000000 0.002728
v 0.247025 1.000000 0.002728
v -0.265271 0.602385 0.002728
v 0.247025 0.602385 0.002728
v 0.265271 -1.000000 1.000000
v 0.265271 1.000000 1.000000
v 0.265271 -1.000000 0.645301
v 0.265271 1.000000 0.645301
v -0.247025 -1.000000 1.000000
v -0.247025 1.000000 1.000000
v -0.247025 -1.000000 0.645301
v -0.247025 1.000000 0.645301
v -0.247025 -0.583037 0.645301
v 0.265271 -0.500000 1.000000
v 0.265271 -0.583037 0.645301
v -0.247025 -0.500000 1.000000
v 0.265271 0.500000 1.000000
v 0.265271 0.602385 0.645301
v -0.247025 0.500000 1.000000
v -0.247025 0.602385 0.645301
v 0.265271 1.000000 -0.002728
v -0.247025 1.000000 -0.002728
v 0.265271 0.602385 -0.002728
v -0.247025 0.602385 -0.002728
v -0.265271 -1.000000 1.000000
v -0.265271 1.000000 1.000000
v -0.265271 -1.000000 0.645301
v -0.265271 1.000000 0.645301
v 0.247025 -1.000000 1.000000
v 0.247025 1.000000 1.000000
v 0.247025 -1.000000 0.645301
v 0.247025 1.000000 0.645301
v 0.247025 -0.583037 0.645301
v -0.265271 -0.500000 1.000000
v -0.265271 -0.583037 0.645301
v 0.247025 -0.500000 1.000000
v -0.265271 0.500000 1.000000
v -0.265271 0.602385 0.645301
v 0.247025 0.500000 1.000000
v 0.247025 0.602385 0.645301
v -0.265271 1.000000 -0.002728
v 0.247025 1.000000 -0.002728
v -0.265271 0.602385 -0.002728
v 0.247025 0.602385 -0.002728
vn -0.0000 1.0000 -0.0000
vn -0.0000 -0.0000 1.0000
vn -1.0000 -0.0000 -0.0000
vn -0.0000 -1.0000 -0.0000
vn 1.0000 -0.0000 -0.0000
vn -0.0000 -0.0000 -1.0000
vt 0.875000 0.500000
vt 0.625000 0.750000
vt 0.625000 0.500000
vt 0.562500 1.000000
vt 0.562500 0.750000
vt 0.562500 0.000000
vt 0.625000 0.250000
vt 0.562500 0.250000
vt 0.375000 0.500000
vt 0.125000 0.750000
vt 0.125000 0.500000
vt 0.562500 0.500000
vt 0.500000 0.250000
vt 0.437500 0.500000
vt 0.437500 0.250000
vt 0.500000 0.750000
vt 0.437500 0.750000
vt 0.500000 0.000000
vt 0.437500 0.000000
vt 0.437500 1.000000
vt 0.500000 0.500000
vt 0.500000 1.000000
vt 0.375000 0.000000
vt 0.375000 0.250000
vt 0.375000 0.750000
vt 0.375000 1.000000
vt 0.625000 0.000000
vt 0.875000 0.750000
vt 0.625000 1.000000
s 0
usemtl Material
f 5/1/1 3/2/1 1/3/1
f 3/2/2 13/4/2 15/5/2
f 13/6/3 5/7/3 16/8/3
f 2/9/4 8/10/4 6/11/4
f 1/3/5 15/5/5 14/12/5
f 5/7/6 14/12/6 16/8/6
f 12/13/6 17/14/6 19/15/6
f 17/14/5 11/16/5 18/17/5
f 10/18/3 19/15/3 20/19/3
f 11/16/2 20/20/2 18/17/2
f 16/8/6 9/21/6 12/13/6
f 14/12/5 11/16/5 9/21/5
f 10/18/3 16/8/3 12/13/3
f 15/5/2 10/22/2 11/16/2
f 8/23/3 24/19/3 20/19/3
f 20/19/3 6/24/3 8/23/3
f 2/9/5 18/17/5 4/25/5
f 19/15/6 2/9/6 6/24/6
f 23/17/2 22/26/2 21/25/2
f 20/20/1 23/17/1 18/17/1
f 4/25/4 22/10/4 8/10/4
f 18/17/5 21/25/5 4/25/5
f 27/2/1 29/1/1 25/3/1
f 37/4/2 27/2/2 39/5/2
f 37/6/5 29/7/5 31/27/5
f 32/10/4 26/9/4 30/11/4
f 39/5/3 25/3/3 38/12/3
f 38/12/6 29/7/6 40/8/6
f 41/14/6 36/13/6 43/15/6
f 41/14/3 35/16/3 33/21/3
f 43/15/5 34/18/5 44/19/5
f 44/20/2 35/16/2 42/17/2
f 33/21/6 40/8/6 36/13/6
f 35/16/3 38/12/3 33/21/3
f 34/18/5 40/8/5 37/6/5
f 34/22/2 39/5/2 35/16/2
f 48/19/5 32/23/5 44/19/5
f 30/24/5 44/19/5 32/23/5
f 26/9/3 42/17/3 41/14/3
f 26/9/6 43/15/6 30/24/6
f 46/26/2 47/17/2 45/25/2
f 47/17/1 44/20/1 42/17/1
f 46/10/4 28/25/4 32/10/4
f 45/25/3 42/17/3 28/25/3
f 51/2/1 53/1/1 49/3/1
f 61/4/6 51/2/6 63/5/6
f 61/6/3 53/7/3 55/27/3
f 56/10/4 50/9/4 54/11/4
f 63/5/5 49/3/5 62/12/5
f 62/12/2 53/7/2 64/8/2
f 65/14/2 60/13/2 67/15/2
f 65/14/5 59/16/5 57/21/5
f 67/15/3 58/18/3 68/19/3
f 68/20/6 59/16/6 66/17/6
f 57/21/2 64/8/2 60/13/2
f 59/16/5 62/12/5 57/21/5
f 58/18/3 64/8/3 61/6/3
f 58/22/6 63/5/6 59/16/6
f 72/19/3 56/23/3 68/19/3
f 54/24/3 68/19/3 56/23/3
f 50/9/5 66/17/5 65/14/5
f 50/9/2 67/15/2 54/24/2
f 70/26/6 71/17/6 69/25/6
f 71/17/1 68/20/1 66/17/1
f 70/10/4 52/25/4 56/10/4
f 69/25/5 66/17/5 52/25/5
f 77/1/1 75/2/1 73/3/1
f 75/2/6 85/4/6 87/5/6
f 85/6/5 77/7/5 88/8/5
f 74/9/4 80/10/4 78/11/4
f 73/3/3 87/5/3 86/12/3
f 77/7/2 86/12/2 88/8/2
f 84/13/2 89/14/2 91/15/2
f 89/14/3 83/16/3 90/17/3
f 82/18/5 91/15/5 92/19/5
f 83/16/6 92/20/6 90/17/6
f 88/8/2 81/21/2 84/13/2
f 86/12/3 83/16/3 81/21/3
f 82/18/5 88/8/5 84/13/5
f 87/5/6 82/22/6 83/16/6
f 80/23/5 96/19/5 92/19/5
f 92/19/5 78/24/5 80/23/5
f 74/9/3 90/17/3 76/25/3
f 91/15/2 74/9/2 78/24/2
f 95/17/6 94/26/6 93/25/6
f 92/20/1 95/17/1 90/17/1
f 76/25/4 94/10/4 80/10/4
f 90/17/3 93/25/3 76/25/3
f 99/2/4 101/1/4 97/3/4
f 105/4/2 99/2/2 107/5/2
f 105/6/3 101/7/3 103/27/3
f 104/10/1 98/9/1 102/11/1
f 107/5/5 97/3/5 106/12/5
f 106/12/6 101/7/6 108/8/6
f 109/14/6 12/13/6 111/15/6
f 109/14/5 11/16/5 9/21/5
f 111/15/3 10/18/3 112/19/3
f 112/20/2 11/16/2 110/17/2
f 9/21/6 108/8/6 12/13/6
f 11/16/5 106/12/5 9/21/5
f 10/18/3 108/8/3 105/6/3
f 10/22/2 107/5/2 11/16/2
f 116/19/3 104/23/3 112/19/3
f 102/24/3 112/19/3 104/23/3
f 98/9/5 110/17/5 109/14/5
f 98/9/6 111/15/6 102/24/6
f 114/26/2 115/17/2 113/25/2
f 115/17/4 112/20/4 110/17/4
f 114/10/1 100/25/1 104/10/1
f 113/25/5 110/17/5 100/25/5
f 121/1/4 119/2/4 117/3/4
f 119/2/2 125/4/2 127/5/2
f 125/6/5 121/7/5 128/8/5
f 118/9/1 124/10/1 122/11/1
f 117/3/3 127/5/3 126/12/3
f 121/7/6 126/12/6 128/8/6
f 36/13/6 129/14/6 131/15/6
f 129/14/3 35/16/3 130/17/3
f 34/18/5 131/15/5 132/19/5
f 35/16/2 132/20/2 130/17/2
f 128/8/6 33/21/6 36/13/6
f 126/12/3 35/16/3 33/21/3
f 34/18/5 128/8/5 36/13/5
f 127/5/2 34/22/2 35/16/2
f 124/23/5 136/19/5 132/19/5
f 132/19/5 122/24/5 124/23/5
f 118/9/3 130/17/3 120/25/3
f 131/15/6 118/9/6 122/24/6
f 135/17/2 134/26/2 133/25/2
f 132/20/4 135/17/4 130/17/4
f 120/25/1 134/10/1 124/10/1
f 130/17/3 133/25/3 120/25/3
f 141/1/4 139/2/4 137/3/4
f 139/2/6 145/4/6 147/5/6
f 145/6/3 141/7/3 148/8/3
f 138/9/1 144/10/1 142/11/1
f 137/3/5 147/5/5 146/12/5
f 141/7/2 146/12/2 148/8/2
f 60/13/2 149/14/2 151/15/2
f 149/14/5 59/16/5 150/17/5
f 58/18/3 151/15/3 152/19/3
f 59/16/6 152/20/6 150/17/6
f 148/8/2 57/21/2 60/13/2
f 146/12/5 59/16/5 57/21/5
f 58/18/3 148/8/3 60/13/3
f 147/5/6 58/22/6 59/16/6
f 144/23/3 156/19/3 152/19/3
f 152/19/3 142/24/3 144/23/3
f 138/9/5 150/17/5 140/25/5
f 151/15/2 138/9/2 142/24/2
f 155/17/6 154/26/6 153/25/6
f 152/20/4 155/17/4 150/17/4
f 140/25/1 154/10/1 144/10/1
f 150/17/5 153/25/5 140/25/5
f 159/2/4 161/1/4 157/3/4
f 165/4/6 159/2/6 167/5/6
f 165/6/5 161/7/5 163/27/5
f 164/10/1 158/9/1 162/11/1
f 167/5/3 157/3/3 166/12/3
f 166/12/2 161/7/2 168/8/2
f 169/14/2 84/13/2 171/15/2
f 169/14/3 83/16/3 81/21/3
f 171/15/5 82/18/5 172/19/5
f 172/20/6 83/16/6 170/17/6
f 81/21/2 168/8/2 84/13/2
f 83/16/3 166/12/3 81/21/3
f 82/18/5 168/8/5 165/6/5
f 82/22/6 167/5/6 83/16/6
f 176/19/5 164/23/5 172/19/5
f 162/24/5 172/19/5 164/23/5
f 158/9/3 170/17/3 169/14/3
f 158/9/2 171/15/2 162/24/2
f 174/26/6 175/17/6 173/25/6
f 175/17/4 172/20/4 170/17/4
f 174/10/1 160/25/1 164/10/1
f 173/25/3 170/17/3 160/25/3
f 5/1/1 7/28/1 3/2/1
f 3/2/2 7/29/2 13/4/2
f 13/6/3 7/27/3 5/7/3
f 2/9/4 4/25/4 8/10/4
f 1/3/5 3/2/5 15/5/5
f 5/7/6 1/3/6 14/12/6
f 12/13/6 9/21/6 17/14/6
f 17/14/5 9/21/5 11/16/5
f 10/18/3 12/13/3 19/15/3
f 11/16/2 10/22/2 20/20/2
f 16/8/6 14/12/6 9/21/6
f 14/12/5 15/5/5 11/16/5
f 10/18/3 13/6/3 16/8/3
f 15/5/2 13/4/2 10/22/2
f 8/23/3 22/23/3 24/19/3
f 20/19/3 19/15/3 6/24/3
f 2/9/5 17/14/5 18/17/5
f 19/15/6 17/14/6 2/9/6
f 23/17/2 24/20/2 22/26/2
f 20/20/1 24/20/1 23/17/1
f 4/25/4 21/25/4 22/10/4
f 18/17/5 23/17/5 21/25/5
f 27/2/1 31/28/1 29/1/1
f 37/4/2 31/29/2 27/2/2
f 37/6/5 40/8/5 29/7/5
f 32/10/4 28/25/4 26/9/4
f 39/5/3 27/2/3 25/3/3
f 38/12/6 25/3/6 29/7/6
f 41/14/6 33/21/6 36/13/6
f 41/14/3 42/17/3 35/16/3
f 43/15/5 36/13/5 34/18/5
f 44/20/2 34/22/2 35/16/2
f 33/21/6 38/12/6 40/8/6
f 35/16/3 39/5/3 38/12/3
f 34/18/5 36/13/5 40/8/5
f 34/22/2 37/4/2 39/5/2
f 48/19/5 46/23/5 32/23/5
f 30/24/5 43/15/5 44/19/5
f 26/9/3 28/25/3 42/17/3
f 26/9/6 41/14/6 43/15/6
f 46/26/2 48/20/2 47/17/2
f 47/17/1 48/20/1 44/20/1
f 46/10/4 45/25/4 28/25/4
f 45/25/3 47/17/3 42/17/3
f 51/2/1 55/28/1 53/1/1
f 61/4/6 55/29/6 51/2/6
f 61/6/3 64/8/3 53/7/3
f 56/10/4 52/25/4 50/9/4
f 63/5/5 51/2/5 49/3/5
f 62/12/2 49/3/2 53/7/2
f 65/14/2 57/21/2 60/13/2
f 65/14/5 66/17/5 59/16/5
f 67/15/3 60/13/3 58/18/3
f 68/20/6 58/22/6 59/16/6
f 57/21/2 62/12/2 64/8/2
f 59/16/5 63/5/5 62/12/5
f 58/18/3 60/13/3 64/8/3
f 58/22/6 61/4/6 63/5/6
f 72/19/3 70/23/3 56/23/3
f 54/24/3 67/15/3 68/19/3
f 50/9/5 52/25/5 66/17/5
f 50/9/2 65/14/2 67/15/2
f 70/26/6 72/20/6 71/17/6
f 71/17/1 72/20/1 68/20/1
f 70/10/4 69/25/4 52/25/4
f 69/25/5 71/17/5 66/17/5
f 77/1/1 79/28/1 75/2/1
f 75/2/6 79/29/6 85/4/6
f 85/6/5 79/27/5 77/7/5
f 74/9/4 76/25/4 80/10/4
f 73/3/3 75/2/3 87/5/3
f 77/7/2 73/3/2 86/12/2
f 84/13/2 81/21/2 89/14/2
f 89/14/3 81/21/3 83/16/3
f 82/18/5 84/13/5 91/15/5
f 83/16/6 82/22/6 92/20/6
f 88/8/2 86/12/2 81/21/2
f 86/12/3 87/5/3 83/16/3
f 82/18/5 85/6/5 88/8/5
f 87/5/6 85/4/6 82/22/6
f 80/23/5 94/23/5 96/19/5
f 92/19/5 91/15/5 78/24/5
f 74/9/3 89/14/3 90/17/3
f 91/15/2 89/14/2 74/9/2
f 95/17/6 96/20/6 94/26/6
f 92/20/1 96/20/1 95/17/1
f 76/25/4 93/25/4 94/10/4
f 90/17/3 95/17/3 93/25/3
f 99/2/4 103/28/4 101/1/4
f 105/4/2 103/29/2 99/2/2
f 105/6/3 108/8/3 101/7/3
f 104/10/1 100/25/1 98/9/1
f 107/5/5 99/2/5 97/3/5
f 106/12/6 97/3/6 101/7/6
f 109/14/6 9/21/6 12/13/6
f 109/14/5 110/17/5 11/16/5
f 111/15/3 12/13/3 10/18/3
f 112/20/2 10/22/2 11/16/2
f 9/21/6 106/12/6 108/8/6
f 11/16/5 107/5/5 106/12/5
f 10/18/3 12/13/3 108/8/3
f 10/22/2 105/4/2 107/5/2
f 116/19/3 114/23/3 104/23/3
f 102/24/3 111/15/3 112/19/3
f 98/9/5 100/25/5 110/17/5
f 98/9/6 109/14/6 111/15/6
f 114/26/2 116/20/2 115/17/2
f 115/17/4 116/20/4 112/20/4
f 114/10/1 113/25/1 100/25/1
f 113/25/5 115/17/5 110/17/5
f 121/1/4 123/28/4 119/2/4
f 119/2/2 123/29/2 125/4/2
f 125/6/5 123/27/5 121/7/5
f 118/9/1 120/25/1 124/10/1
f 117/3/3 119/2/3 127/5/3
f 121/7/6 117/3/6 126/12/6
f 36/13/6 33/21/6 129/14/6
f 129/14/3 33/21/3 35/16/3
f 34/18/5 36/13/5 131/15/5
f 35/16/2 34/22/2 132/20/2
f 128/8/6 126/12/6 33/21/6
f 126/12/3 127/5/3 35/16/3
f 34/18/5 125/6/5 128/8/5
f 127/5/2 125/4/2 34/22/2
f 124/23/5 134/23/5 136/19/5
f 132/19/5 131/15/5 122/24/5
f 118/9/3 129/14/3 130/17/3
f 131/15/6 129/14/6 118/9/6
f 135/17/2 136/20/2 134/26/2
f 132/20/4 136/20/4 135/17/4
f 120/25/1 133/25/1 134/10/1
f 130/17/3 135/17/3 133/25/3
f 141/1/4 143/28/4 139/2/4
f 139/2/6 143/29/6 145/4/6
f 145/6/3 143/27/3 141/7/3
f 138/9/1 140/25/1 144/10/1
f 137/3/5 139/2/5 147/5/5
f 141/7/2 137/3/2 146/12/2
f 60/13/2 57/21/2 149/14/2
f 149/14/5 57/21/5 59/16/5
f 58/18/3 60/13/3 151/15/3
f 59/16/6 58/22/6 152/20/6
f 148/8/2 146/12/2 57/21/2
f 146/12/5 147/5/5 59/16/5
f 58/18/3 145/6/3 148/8/3
f 147/5/6 145/4/6 58/22/6
f 144/23/3 154/23/3 156/19/3
f 152/19/3 151/15/3 142/24/3
f 138/9/5 149/14/5 150/17/5
f 151/15/2 149/14/2 138/9/2
f 155/17/6 156/20/6 154/26/6
f 152/20/4 156/20/4 155/17/4
f 140/25/1 153/25/1 154/10/1
f 150/17/5 155/17/5 153/25/5
f 159/2/4 163/28/4 161/1/4
f 165/4/6 163/29/6 159/2/6
f 165/6/5 168/8/5 161/7/5
f 164/10/1 160/25/1 158/9/1
f 167/5/3 159/2/3 157/3/3
f 166/12/2 157/3/2 161/7/2
f 169/14/2 81/21/2 84/13/2
f 169/14/3 170/17/3 83/16/3
f 171/15/5 84/13/5 82/18/5
f 172/20/6 82/22/6 83/16/6
f 81/21/2 166/12/2 168/8/2
f 83/16/3 167/5/3 166/12/3
f 82/18/5 84/13/5 168/8/5
f 82/22/6 165/4/6 167/5/6
f 176/19/5 174/23/5 164/23/5
f 162/24/5 171/15/5 172/19/5
f 158/9/3 160/25/3 170/17/3
f 158/9/2 169/14/2 171/15/2
f 174/26/6 176/20/6 175/17/6
f 175/17/4 176/20/4 172/20/4
f 174/10/1 173/25/1 160/25/1
f 173/25/3 175/17/3 170/17/3
