# Blender 3.5.0
# www.blender.org
mtllib moai.mtl
o 立方体
v -1.000000 -0.088862 0.909956
v -1.000000 1.911138 1.000000
v -1.163700 -0.088862 -0.685402
v -1.000000 1.911138 -1.000000
v 1.000000 -0.088862 0.909956
v 1.000000 1.911138 1.000000
v 0.836300 -0.088862 -0.685402
v 1.000000 1.911138 -1.000000
v -0.895324 3.098516 0.770571
v -0.895324 3.098516 -0.769321
v 0.662737 3.098516 -0.769321
v 0.662737 3.098516 0.770571
v -1.000000 0.911138 1.000000
v -1.000000 0.911138 -1.000000
v 1.000000 0.911138 -1.000000
v 1.000000 0.911138 1.000000
v -1.361380 -0.088862 0.000000
v -1.361380 1.911138 -0.000000
v 1.326720 -0.088862 0.000000
v 1.326720 1.911138 -0.000000
v -1.256705 3.098516 0.000625
v 0.989457 3.098516 0.000625
v 0.946973 0.911138 -0.000000
v -1.361380 0.911138 -0.000000
v 0.670028 2.496523 0.886890
v 0.968475 2.596060 0.000360
v 0.654669 2.550593 -0.875769
v 1.015109 1.911138 -0.452717
v 0.999751 1.911138 0.499725
v 1.311844 2.116267 0.000009
v 1.286734 1.120408 -0.000000
v 1.169371 1.918843 -0.308302
v 1.044375 0.911138 -0.363141
v 1.163021 0.615302 -0.000000
v 1.118921 1.911138 0.346865
v 0.995809 0.911138 0.511790
v 1.006759 0.536724 0.478274
v 1.028188 0.547171 -0.298183
v 0.988495 1.162976 0.534175
v 1.028441 1.203348 0.411913
v 1.025360 1.223869 -0.421342
v 1.515507 1.245007 -0.242116
v 1.050401 1.375134 0.344698
v 1.327954 1.481359 -0.440098
v 1.594611 1.476477 -0.000000
v 0.908495 2.572132 0.975659
v 1.206943 2.671669 0.089129
v 1.238218 1.986746 0.588494
v 1.144909 2.651789 -0.065725
v 0.831103 2.606322 -0.941855
v 1.191542 1.966866 -0.518803
v 1.288797 0.806241 -0.357492
v 1.191395 0.806241 0.005649
v 1.407443 0.510405 0.005649
v 1.240230 0.806241 0.517438
v 1.251181 0.431827 0.483923
v 1.272610 0.442274 -0.292534
vn -0.9405 -0.0000 -0.3399
vn -0.0000 -0.0000 -1.0000
vn 0.9999 -0.0151 -0.0005
vn -0.0000 -0.0000 1.0000
vn -0.0000 -1.0000 -0.0000
vn -0.9024 0.0793 0.4235
vn -0.0000 1.0000 -0.0000
vn -0.0000 0.1897 0.9818
vn -0.0000 0.1907 -0.9816
vn 0.8895 0.0645 -0.4524
vn -0.0000 -0.0897 0.9960
vn 0.9999 -0.0012 0.0138
vn -0.0000 -0.3001 -0.9539
vn -0.9608 -0.0000 -0.2771
vn -0.9294 -0.0000 0.3691
vn 0.8739 0.2032 -0.4416
vn 0.8712 0.4910 -0.0004
vn -0.9302 0.1473 -0.3362
vn 0.4408 -0.5686 -0.6946
vn -0.9405 -0.0000 0.3399
vn 0.9199 -0.0382 -0.3903
vn 0.9426 0.0743 0.3257
vn -0.1122 -0.5915 -0.7985
vn 0.8777 0.4787 -0.0242
vn 0.4377 -0.5166 -0.7359
vn 0.6518 0.4660 0.5984
vn -0.0619 -0.0908 0.9939
vn -0.3744 -0.8528 0.3641
vn 0.9995 0.0298 -0.0086
vn 0.8525 -0.1110 0.5107
vn 0.6358 0.4555 -0.6231
vn 0.8562 0.0621 0.5129
vn 0.1601 -0.9311 -0.3279
vn 0.7075 -0.6118 0.3537
vn 0.5344 -0.4620 0.7078
vn 0.7584 0.4674 -0.4543
vn 0.8984 0.2848 0.3344
vn -0.1102 -0.5907 0.7993
vn -0.3038 0.9527 0.0047
vn 0.8980 0.2836 -0.3364
vn 0.4363 -0.4756 0.7638
vn -0.2831 0.9577 0.0517
vn 0.9948 0.0376 -0.0949
vn 0.7223 0.5275 -0.4472
vn 0.3902 0.9148 0.1047
vn -0.0516 -0.1732 -0.9835
vn -0.3747 -0.8875 -0.2682
vn 0.3948 0.9180 -0.0377
vn 0.9854 -0.1422 -0.0940
vn 0.4690 -0.7615 0.4474
vn 0.9506 -0.0000 0.3106
vn 0.7845 -0.1028 0.6116
vn 0.9997 -0.0000 -0.0247
vn -0.9303 0.1470 0.3362
vn 0.9186 0.2177 0.3298
vn 0.9178 0.2134 0.3349
vn 0.9995 0.0300 -0.0086
vn -0.9394 0.0470 -0.3395
vn -0.9400 -0.0306 0.3397
vn 0.8085 0.1083 -0.5785
vn 0.9682 -0.2040 -0.1447
vn 0.9960 -0.0567 -0.0694
vn -0.9024 0.0798 -0.4235
vn 0.9964 0.0477 -0.0694
vn 0.9990 -0.0000 -0.0438
vn 0.6080 0.4228 -0.6720
vn 0.3247 -0.4425 -0.8359
vn 0.8086 0.5879 -0.0223
vn 0.9393 0.0521 -0.3391
vn 0.9199 -0.0386 0.3903
vn 0.7558 0.2855 0.5892
vn 0.4726 0.2913 0.8318
vn 0.5482 0.5660 -0.6157
vn 0.5193 -0.8431 0.1393
vn 0.8434 -0.0483 -0.5351
vn 0.8314 0.2400 -0.5011
vn 0.8519 0.0928 0.5155
vn 0.8138 0.4170 -0.4049
vn 0.7597 0.5548 0.3393
vn 0.9659 0.0033 0.2591
vt 0.125000 0.750000
vt 0.375000 1.000000
vt 0.375000 0.000000
vt 0.625000 1.000000
vt 0.625000 0.000000
vt 0.125000 0.500000
vt 0.375000 0.250000
vt 0.625000 0.250000
vt 0.375000 0.750000
vt 0.625000 0.750000
vt 0.375000 0.500000
vt 0.625000 0.500000
vt 0.625000 0.000000
vt 0.875000 0.750000
vt 0.625000 1.000000
vt 0.875000 0.500000
vt 0.625000 0.250000
vt 0.625000 0.500000
vt 0.625000 0.750000
vt 0.500000 1.000000
vt 0.500000 0.000000
vt 0.500000 0.250000
vt 0.500000 0.500000
vt 0.500000 0.750000
vt 0.375000 0.125000
vt 0.125000 0.625000
vt 0.625000 0.125000
vt 0.375000 0.625000
vt 0.625000 0.625000
vt 0.875000 0.625000
vt 0.625000 0.125000
vt 0.625000 0.625000
vt 0.500000 0.625000
vt 0.500000 0.125000
vt 0.625000 0.750000
vt 0.625000 0.625000
vt 0.625000 0.500000
vt 0.625000 0.568410
vt 0.625000 0.687466
vt 0.625000 0.625000
vt 0.545303 0.625000
vt 0.625000 0.603166
vt 0.500000 0.579607
vt 0.463021 0.625000
vt 0.625000 0.641872
vt 0.500000 0.688974
vt 0.453208 0.686707
vt 0.454353 0.581005
vt 0.531480 0.691772
vt 0.536526 0.676489
vt 0.539091 0.572332
vt 0.541734 0.594736
vt 0.558000 0.668087
vt 0.571278 0.597727
vt 0.570667 0.625000
vt 0.625000 0.750000
vt 0.625000 0.625000
vt 0.625000 0.687466
vt 0.625000 0.625000
vt 0.625000 0.500000
vt 0.625000 0.568410
vt 0.500000 0.579607
vt 0.500000 0.625000
vt 0.463021 0.625000
vt 0.500000 0.688974
vt 0.453208 0.686707
vt 0.454353 0.581005
s 0
usemtl material.001
f 18/27/1 14/22/1 24/34/1
f 4/8/2 15/23/2 14/22/2
f 29/39/3 6/10/3 39/49/3
f 6/10/4 13/20/4 16/24/4
f 19/28/5 1/1/5 17/26/5
f 18/27/6 9/13/6 21/31/6
f 22/32/7 9/14/7 12/19/7
f 25/35/8 12/19/8 9/15/8
f 10/17/9 11/18/9 27/37/9
f 20/29/10 32/42/10 30/40/10
f 16/24/11 1/2/11 5/9/11
f 37/47/12 16/24/12 5/9/12
f 14/22/13 7/11/13 3/7/13
f 24/34/14 3/7/14 17/25/14
f 1/3/15 24/34/15 17/25/15
f 38/48/16 34/44/16 19/28/16
f 6/10/17 29/39/17 25/35/17
f 10/16/7 22/32/7 11/18/7
f 18/27/18 10/17/18 4/8/18
f 7/11/5 17/26/5 3/6/5
f 8/12/19 44/54/19 41/51/19
f 2/5/20 24/34/20 13/21/20
f 26/36/21 11/18/21 22/32/21
f 26/36/22 12/19/22 25/35/22
f 27/37/23 51/61/23 28/38/23
f 27/37/24 28/38/24 8/12/24
f 29/39/25 47/57/25 48/58/25
f 29/39/26 30/40/26 26/36/26
f 37/47/27 55/65/27 36/46/27
f 34/44/28 57/67/28 54/64/28
f 36/46/29 39/49/29 16/24/29
f 43/53/30 20/29/30 35/45/30
f 30/40/31 28/38/31 26/36/31
f 30/40/32 35/45/32 20/29/32
f 41/51/33 42/52/33 31/41/33
f 42/52/34 45/55/34 31/41/34
f 43/53/35 31/41/35 45/55/35
f 44/54/36 20/29/36 45/55/36
f 46/56/37 48/58/37 47/57/37
f 25/35/38 48/58/38 46/56/38
f 25/35/39 47/57/39 26/36/39
f 49/59/40 51/61/40 50/60/40
f 26/36/41 51/61/41 49/59/41
f 26/36/42 50/60/42 27/37/42
f 56/66/43 53/63/43 55/65/43
f 57/67/44 53/63/44 54/64/44
f 33/43/45 53/63/45 52/62/45
f 38/48/46 52/62/46 57/67/46
f 34/44/47 56/66/47 37/47/47
f 36/46/48 53/63/48 23/33/48
f 18/27/1 4/8/1 14/22/1
f 4/8/2 8/12/2 15/23/2
f 36/46/49 23/33/49 40/50/49
f 23/33/50 31/41/50 40/50/50
f 40/50/51 43/53/51 39/49/51
f 43/53/52 35/45/52 29/39/52
f 6/10/53 16/24/53 39/49/53
f 39/49/51 36/46/51 40/50/51
f 43/53/51 29/39/51 39/49/51
f 6/10/4 2/4/4 13/20/4
f 19/28/5 5/9/5 1/1/5
f 18/27/54 2/5/54 9/13/54
f 22/32/7 21/30/7 9/14/7
f 9/15/8 2/4/8 25/35/8
f 2/4/8 6/10/8 25/35/8
f 27/37/9 8/12/9 4/8/9
f 4/8/9 10/17/9 27/37/9
f 16/24/11 13/20/11 1/2/11
f 5/9/55 19/28/55 37/47/55
f 19/28/56 34/44/56 37/47/56
f 37/47/57 36/46/57 16/24/57
f 14/22/13 15/23/13 7/11/13
f 24/34/58 14/22/58 3/7/58
f 1/3/59 13/21/59 24/34/59
f 19/28/60 7/11/60 38/48/60
f 7/11/61 15/23/61 38/48/61
f 15/23/62 33/43/62 38/48/62
f 10/16/7 21/30/7 22/32/7
f 18/27/63 21/31/63 10/17/63
f 7/11/5 19/28/5 17/26/5
f 33/43/64 15/23/64 41/51/64
f 15/23/65 8/12/65 41/51/65
f 28/38/66 32/42/66 44/54/66
f 44/54/67 42/52/67 41/51/67
f 8/12/68 28/38/68 44/54/68
f 2/5/20 18/27/20 24/34/20
f 26/36/69 27/37/69 11/18/69
f 26/36/70 22/32/70 12/19/70
f 27/37/23 50/60/23 51/61/23
f 29/39/25 26/36/25 47/57/25
f 29/39/71 35/45/71 30/40/71
f 37/47/27 56/66/27 55/65/27
f 34/44/28 38/48/28 57/67/28
f 43/53/72 45/55/72 20/29/72
f 30/40/73 32/42/73 28/38/73
f 23/33/74 33/43/74 31/41/74
f 33/43/75 41/51/75 31/41/75
f 42/52/76 44/54/76 45/55/76
f 43/53/77 40/50/77 31/41/77
f 44/54/78 32/42/78 20/29/78
f 25/35/38 29/39/38 48/58/38
f 25/35/39 46/56/39 47/57/39
f 26/36/41 28/38/41 51/61/41
f 26/36/42 49/59/42 50/60/42
f 56/66/79 54/64/79 53/63/79
f 57/67/80 52/62/80 53/63/80
f 33/43/45 23/33/45 53/63/45
f 38/48/46 33/43/46 52/62/46
f 34/44/47 54/64/47 56/66/47
f 36/46/48 55/65/48 53/63/48
