# Blender 3.5.0
# www.blender.org
mtllib skybox.mtl
o Cube
v 662.540833 662.540771 -662.540894
v 662.540833 -662.540894 -662.540771
v 662.540833 662.540894 662.540771
v 662.540833 -662.540771 662.540894
v -662.540833 662.540771 -662.540894
v -662.540833 -662.540894 -662.540771
v -662.540833 662.540894 662.540771
v -662.540833 -662.540771 662.540894
vn -0.5774 -0.5774 -0.5774
vn 0.5774 -0.5774 0.5774
vn -0.5774 -0.5774 0.5774
vn 0.5774 0.5774 -0.5774
vn -0.5774 0.5774 -0.5774
vn 0.5774 0.5774 0.5774
vn 0.5774 -0.5774 -0.5774
vn -0.5774 0.5774 0.5774
vt 0.499410 0.666426
vt 0.499747 0.666714
vt 0.499996 0.333333
vt 0.499747 0.333333
vt 0.250057 0.666955
vt 0.250057 0.333333
vt 0.499410 0.999328
vt 0.748170 0.666714
vt 0.749435 0.666714
vt 0.499996 0.000081
vt 0.749435 0.333333
vt 0.748170 0.333333
vt 0.250057 0.999328
vt 0.000520 0.666955
vt 0.999625 0.666955
vt 0.999625 0.333333
vt 0.000520 0.333333
vt 0.250057 0.000081
s 1
usemtl Material.001
f 3/5/1 5/7/2 1/1/3
f 8/17/4 3/5/1 4/6/5
f 6/12/6 7/15/7 8/16/4
f 8/18/4 2/3/8 6/10/6
f 4/6/5 1/2/3 2/4/8
f 2/4/8 5/9/2 6/11/6
f 3/5/1 7/13/7 5/7/2
f 8/17/4 7/14/7 3/5/1
f 6/12/6 5/8/2 7/15/7
f 8/18/4 4/6/5 2/3/8
f 4/6/5 3/5/1 1/2/3
f 2/4/8 1/2/3 5/9/2
